<svg xmlns="http://www.w3.org/2000/svg" width="15.743" height="14.169" viewBox="0 0 15.743 14.169">
  <g id="Icon_material-camera-alt" data-name="Icon material-camera-alt" transform="translate(-3 -3)">
    <path id="Path_155455" data-name="Path 155455" d="M18.238,15.719A2.519,2.519,0,1,1,15.719,13.2,2.519,2.519,0,0,1,18.238,15.719Z" transform="translate(-4.847 -4.847)" fill="#7b7e8e"/>
    <path id="Path_155456" data-name="Path 155456" d="M8.51,3,7.07,4.574h-2.5A1.579,1.579,0,0,0,3,6.149v9.446a1.579,1.579,0,0,0,1.574,1.574H17.169a1.579,1.579,0,0,0,1.574-1.574V6.149a1.579,1.579,0,0,0-1.574-1.574h-2.5L13.233,3Zm2.361,11.807a3.936,3.936,0,1,1,3.936-3.936A3.937,3.937,0,0,1,10.872,14.807Z" transform="translate(0 0)" fill="#7b7e8e"/>
  </g>
</svg>
