<svg xmlns="http://www.w3.org/2000/svg" width="19.65" height="19.684" viewBox="0 0 19.65 19.684">
  <path id="fi_phone-call" d="M13.305,4.461a4.326,4.326,0,0,1,3.417,3.417M13.305,1a7.786,7.786,0,0,1,6.878,6.869m-.865,6.9v2.6a1.73,1.73,0,0,1-1.886,1.73,17.122,17.122,0,0,1-7.466-2.656,16.869,16.869,0,0,1-5.191-5.191,17.121,17.121,0,0,1-2.656-7.5A1.73,1.73,0,0,1,3.841,1.865h2.6a1.73,1.73,0,0,1,1.73,1.488,11.109,11.109,0,0,0,.606,2.431A1.73,1.73,0,0,1,8.382,7.61l-1.1,1.1A13.842,13.842,0,0,0,12.475,13.9l1.1-1.1a1.73,1.73,0,0,1,1.825-.389,11.1,11.1,0,0,0,2.431.606,1.73,1.73,0,0,1,1.488,1.756Z" transform="translate(-1.362 -0.172)" fill="none" stroke="#282c3f" stroke-linecap="round" stroke-linejoin="round" stroke-width="1.5"/>
</svg>
