<svg xmlns="http://www.w3.org/2000/svg" width="88.02" height="94.77" viewBox="0 0 88.02 94.77">
  <g id="Group_183226" data-name="Group 183226" transform="translate(-4249.704 -2198.802)">
    <path id="Path_155287" data-name="Path 155287" d="M4080.083,2268.526V2314.2h73.543v-45.678Z" transform="translate(176.689 -21.632)" fill="none" stroke="#454545" stroke-width="2"/>
    <path id="Path_155288" data-name="Path 155288" d="M4086.545,2268.526l-6.462,16.152h39.778l6.461-16.152Z" transform="translate(209.924 -37.784)" fill="none" stroke="#454545" stroke-width="2"/>
    <path id="Path_155289" data-name="Path 155289" d="M4113.556,2268.526l5.438,16.136h-33.473l-5.438-16.136Z" transform="translate(171.014 -37.784)" fill="none" stroke="#454545" stroke-width="2"/>
    <line id="Line_1020" data-name="Line 1020" y2="45.614" transform="translate(4290.007 2246.877)" fill="none" stroke="#454545" stroke-width="2"/>
    <g id="Group_183225" data-name="Group 183225" transform="translate(4264.982 2198.802)">
      <path id="Path_155295" data-name="Path 155295" d="M4086.71,2208.366l6.193,3.761" transform="translate(-4086.71 -2192.135)" fill="none" stroke="#e50019" stroke-width="2"/>
      <path id="Path_155296" data-name="Path 155296" d="M4109.773,2184.867l3.641,6.321" transform="translate(-4097.768 -2180.869)" fill="none" stroke="#e50019" stroke-width="2"/>
      <path id="Path_155297" data-name="Path 155297" d="M4141.5,2176.4v7.117" transform="translate(-4112.978 -2176.403)" fill="none" stroke="#e50019" stroke-width="2"/>
      <path id="Path_155298" data-name="Path 155298" d="M4169.67,2184.867l-3.627,6.384" transform="translate(-4124.745 -2180.869)" fill="none" stroke="#e50019" stroke-width="2"/>
      <path id="Path_155299" data-name="Path 155299" d="M4190.62,2208.366l-6.221,3.512" transform="translate(-4133.545 -2192.135)" fill="none" stroke="#e50019" stroke-width="2"/>
    </g>
  </g>
</svg>
