<svg xmlns="http://www.w3.org/2000/svg" width="89.037" height="78.854" viewBox="0 0 89.037 78.854">
  <g id="Group_27734" data-name="Group 27734" transform="translate(18097 -17824.916)">
    <g id="Group_27732" data-name="Group 27732" transform="translate(-18086.988 17825.998)">
      <g id="Group_27731" data-name="Group 27731">
        <path id="Path_40965" data-name="Path 40965" d="M-18035.334,17861.391l.729,45.012,38.139-15.971v-44.059Z" transform="translate(18074.492 -17830.123)" fill="none" stroke="#454545" stroke-width="2"/>
        <path id="Path_40966" data-name="Path 40966" d="M-18005.391,17841.7l-40.291-15.7-36.77,15.961,37.8,15.5" transform="translate(18084.039 -17825.996)" fill="none" stroke="#454545" stroke-width="2"/>
        <path id="Path_40967" data-name="Path 40967" d="M-18084.443,17846.373v23.533" transform="translate(18084.443 -17830.381)" fill="none" stroke="#454545" stroke-width="2"/>
        <path id="Path_40968" data-name="Path 40968" d="M-18040.52,17920.3l-13.818-4.937" transform="translate(18079.787 -17843.471)" fill="none" stroke="#454545" stroke-width="2"/>
        <path id="Path_40969" data-name="Path 40969" d="M-18084.443,17883.678v1.844" transform="translate(18084.443 -17845.672)" fill="none" stroke="#454545" stroke-linecap="round" stroke-width="2"/>
        <path id="Path_40970" data-name="Path 40970" d="M-18057.99,17913.729l-.957-.357" transform="translate(18084.396 -17841.479)" fill="none" stroke="#454545" stroke-linecap="round" stroke-width="2"/>
      </g>
      <path id="Path_40971" data-name="Path 40971" d="M-18029.951,17832.453l-36.33,16.309" transform="translate(18080.762 -17827.305)" fill="none" stroke="#454545" stroke-width="2"/>
      <path id="Path_40972" data-name="Path 40972" d="M-18022.023,17837.008l-35.74,16.555" transform="translate(18081.959 -17828.23)" fill="none" stroke="#454545" stroke-width="2"/>
    </g>
    <g id="Ellipse_14420" data-name="Ellipse 14420" transform="translate(-18097 17869.662)" fill="none" stroke="#e50019" stroke-width="2">
      <circle cx="16.67" cy="16.67" r="16.67" stroke="none"/>
      <circle cx="16.67" cy="16.67" r="15.67" fill="none"/>
    </g>
    <g id="Group_28134" data-name="Group 28134" transform="translate(-18268.111 17492.365)">
      <path id="Path_41404" data-name="Path 41404" d="M416.06,443.615h.012" transform="translate(-228.29 -42.8)" fill="none" stroke="#e50019" stroke-linecap="round" stroke-linejoin="round" stroke-width="2"/>
      <path id="Path_41405" data-name="Path 41405" d="M416.06,433.919v6.748" transform="translate(-228.29 -44.7)" fill="none" stroke="#e50019" stroke-linecap="round" stroke-linejoin="round" stroke-width="2"/>
    </g>
  </g>
</svg>
