<svg xmlns="http://www.w3.org/2000/svg" width="67.201" height="76.504" viewBox="0 0 67.201 76.504">
  <g id="Group_28038" data-name="Group 28038" transform="translate(-136.363 -211.738)">
    <g id="_16-heart" data-name="16-heart" transform="translate(166.866 253.935)">
      <path id="Path_40955" data-name="Path 40955" d="M33.632,5.129a10.3,10.3,0,0,0-14.787,0,10.3,10.3,0,0,0-14.787,0,10.825,10.825,0,0,0,0,15.1L18.845,35.309l14.787-15.1A10.825,10.825,0,0,0,33.632,5.129Z" transform="translate(-0.993 -2.001)" fill="#ffffff" stroke="#e50019" stroke-linecap="round" stroke-linejoin="round" stroke-width="2"/>
    </g>
    <g id="Group_27726" data-name="Group 27726" transform="translate(137.357 212.74)">
      <path id="Path_40957" data-name="Path 40957" d="M-22608.443,19890.764v-17.275h-57.748s.021,15.52,0,30.553c-.006,6.469-.072,12.523,0,17.367.053,3.545.094,6.08,1.748,7.824a6.875,6.875,0,0,0,4.621,1.564c12.453.148,31.045,0,31.045,0" transform="translate(22666.225 -19856.496)" fill="none" stroke="#454545" stroke-linecap="round" stroke-width="2"/>
      <path id="Path_40958" data-name="Path 40958" d="M-22648.08,19878.953c.025-4.436-.689-12.027,2.76-18.336s10.721-6.379,11.338-6.363,7.992.059,11.371,6.363,2.916,13.814,2.887,18.336" transform="translate(22662.795 -19854.252)" fill="none" stroke="#454545" stroke-linecap="round" stroke-width="2"/>
    </g>
  </g>
</svg>
