<svg xmlns="http://www.w3.org/2000/svg" width="12.963" height="16.36" viewBox="0 0 12.963 16.36">
  <g id="Group_7171" data-name="Group 7171" transform="translate(-1255 -33.629)">
    <g id="Path_3640" data-name="Path 3640" transform="translate(1255.001 33.629)" fill="none" stroke-linecap="round" stroke-linejoin="round">
      <path d="M6.48,0a6.2,6.2,0,0,1,6.481,6.481c0,4.053-6.481,9.879-6.481,9.879S-.043,10.632,0,6.481A6.166,6.166,0,0,1,6.48,0Z" stroke="none"/>
      <path d="M 6.480433464050293 1.500001907348633 C 5.050313472747803 1.500001907348633 3.826963424682617 1.940951347351074 2.942643165588379 2.775171279907227 C 2.014133453369141 3.651071548461914 1.514983177185059 4.937861442565918 1.499163627624512 6.496411323547363 C 1.48586368560791 7.807291984558105 2.499003410339355 9.757381439208984 4.351963043212891 11.98745155334473 C 5.11430549621582 12.90495014190674 5.885895729064941 13.7092399597168 6.470856189727783 14.28765201568604 C 7.047382831573486 13.70792293548584 7.807765483856201 12.90376091003418 8.566093444824219 11.9853515625 C 10.43477344512939 9.72219181060791 11.46309280395508 7.768052101135254 11.46163368225098 6.482901573181152 C 11.45990371704102 4.967961311340332 10.96433353424072 3.697281837463379 10.02848339080811 2.808221817016602 C 9.140453338623047 1.964601516723633 7.8804030418396 1.500001907348633 6.480433464050293 1.500001907348633 M 6.480433464050293 1.9073486328125e-06 C 10.05990314483643 1.9073486328125e-06 12.95701313018799 2.428191184997559 12.96163368225098 6.481191635131836 C 12.96624374389648 10.5341911315918 6.480433464050293 16.35986137390137 6.480433464050293 16.35986137390137 C 6.480433464050293 16.35986137390137 -0.042877197265625 10.63198184967041 -0.0007562637329101562 6.481191635131836 C 0.04137325286865234 2.330401420593262 2.900973320007324 1.9073486328125e-06 6.480433464050293 1.9073486328125e-06 Z" stroke="none" fill="#e50019"/>
    </g>
    <g id="Path_3641" data-name="Path 3641" transform="translate(1259.065 38.065)" fill="none">
      <path d="M2.324-.435A2.435,2.435,0,1,1-.11,2,2.435,2.435,0,0,1,2.324-.435Z" stroke="none"/>
      <path d="M 2.32421875 1.065310001373291 C 1.808828830718994 1.065310001373291 1.389528751373291 1.484610080718994 1.389528751373291 2 C 1.389528751373291 2.515389919281006 1.808828830718994 2.934689998626709 2.32421875 2.934689998626709 C 2.839608669281006 2.934689998626709 3.258908748626709 2.515389919281006 3.258908748626709 2 C 3.258908748626709 1.484610080718994 2.839608669281006 1.065310001373291 2.32421875 1.065310001373291 M 2.32421875 -0.434689998626709 C 3.668858766555786 -0.434689998626709 4.758908748626709 0.6553599834442139 4.758908748626709 2 C 4.758908748626709 3.344640016555786 3.668858766555786 4.434689998626709 2.32421875 4.434689998626709 C 0.9795787334442139 4.434689998626709 -0.110471248626709 3.344640016555786 -0.110471248626709 2 C -0.110471248626709 0.6553599834442139 0.9795787334442139 -0.434689998626709 2.32421875 -0.434689998626709 Z" stroke="none" fill="#e50019"/>
    </g>
  </g>
</svg>
