<svg xmlns="http://www.w3.org/2000/svg" width="167.057" height="60.306" viewBox="0 0 167.057 60.306">
  <g id="Group_1668" data-name="Group 1668" transform="translate(-5.188 -4.05)">
    <g id="Group_1666" data-name="Group 1666" transform="translate(5.188 4.05)">
      <path id="Path_3035" data-name="Path 3035" d="M123.245,163.309v-5.831H121.9v-.865h1.345v-2.165h.913v2.165h1.35v.865h-1.35v5.831Zm5.6-8.861h.9V157.4a2.538,2.538,0,0,1,.945-.69,3.211,3.211,0,0,1,1.237-.23,2.7,2.7,0,0,1,2.182.807,4.035,4.035,0,0,1,.688,2.62v3.4h-.9V159.9a3.252,3.252,0,0,0-.467-2.024,1.9,1.9,0,0,0-1.556-.567,2.41,2.41,0,0,0-1.088.234,1.816,1.816,0,0,0-.739.67,1.854,1.854,0,0,0-.235.625,7.237,7.237,0,0,0-.068,1.222v3.254h-.9Zm16.982,5.788h-6.416a2.521,2.521,0,0,0,.84,1.766,2.924,2.924,0,0,0,3.325.284,2.62,2.62,0,0,0,.987-1.089h1.036a3.887,3.887,0,0,1-1.379,1.7,3.828,3.828,0,0,1-4.681-.444,3.506,3.506,0,0,1-.022-5.027,3.728,3.728,0,0,1,2.683-1,3.482,3.482,0,0,1,2.612,1.037,3.725,3.725,0,0,1,1.014,2.7Zm-1.009-.725a2.984,2.984,0,0,0-.951-1.7,2.732,2.732,0,0,0-1.8-.569,2.556,2.556,0,0,0-2.627,2.27Zm17.015.519a2.674,2.674,0,0,0-.8-1.954,2.583,2.583,0,0,0-1.89-.81,2.687,2.687,0,0,0-1.924.769,2.521,2.521,0,0,0-.8,1.884,2.734,2.734,0,0,0,2.751,2.768,2.585,2.585,0,0,0,1.863-.8,2.544,2.544,0,0,0,.806-1.863m-.026-2.357v-3.225h.918v8.861H161.8V162.3a3.315,3.315,0,0,1-1.189.872,3.656,3.656,0,0,1-1.5.312,3.565,3.565,0,0,1-2.589-1.02,3.352,3.352,0,0,1-1.055-2.507,3.3,3.3,0,0,1,1.042-2.48,3.588,3.588,0,0,1,2.6-1.008,3.7,3.7,0,0,1,1.526.307,3.142,3.142,0,0,1,1.167.9m5.893-1.843h-.91v-1.382h.91Zm-.909.783h.911v6.7h-.911Zm6.21,7.242a1.7,1.7,0,0,0,.75.911,2.493,2.493,0,0,0,1.319.327,2.568,2.568,0,0,0,1.945-.761,2.8,2.8,0,0,0,.735-2.035v-.177a3.558,3.558,0,0,1-1.175,1,3.161,3.161,0,0,1-1.455.34,3.71,3.71,0,0,1-2.662-1.01,3.484,3.484,0,0,1-.011-4.992,3.6,3.6,0,0,1,2.588-1,3.7,3.7,0,0,1,1.555.3,3.169,3.169,0,0,1,1.16.952v-1.1h.89V162.2a3.833,3.833,0,0,1-.932,2.74,3.373,3.373,0,0,1-2.575.986,3.717,3.717,0,0,1-2.072-.562,2.538,2.538,0,0,1-1.119-1.508Zm-.633-3.949a2.676,2.676,0,0,0,.792,1.966,2.639,2.639,0,0,0,3.769,0,2.526,2.526,0,0,0,.807-1.866,2.687,2.687,0,0,0-.793-1.954,2.545,2.545,0,0,0-1.873-.809,2.648,2.648,0,0,0-1.909.773,2.536,2.536,0,0,0-.793,1.893m11.226-4.077h-.912v-1.382h.912Zm-.912.783h.912v6.7h-.912Zm5.617,6.7v-5.831h-1.348v-.865h1.348v-2.165h.912v2.165h1.349v.865h-1.349v5.831ZM199.9,159.92a2.524,2.524,0,0,0-.809-1.861,2.575,2.575,0,0,0-1.859-.793,2.728,2.728,0,0,0-2.752,2.764,2.515,2.515,0,0,0,.8,1.888,2.666,2.666,0,0,0,1.923.771,2.573,2.573,0,0,0,1.89-.813,2.673,2.673,0,0,0,.807-1.955m0,2.329a2.894,2.894,0,0,1-1.154.908,3.772,3.772,0,0,1-1.568.326,3.585,3.585,0,0,1-2.6-1.006,3.5,3.5,0,0,1,.021-5,3.716,3.716,0,0,1,2.659-1.009,3.547,3.547,0,0,1,1.5.314,3,3,0,0,1,1.139.9v-1.072h.89v6.7h-.89Zm4.956-7.8h.909v8.863h-.909Zm10.89,6.755h.935v.023a1.484,1.484,0,0,0,.381,1.039,1.242,1.242,0,0,0,.946.41,1.3,1.3,0,0,0,.891-.315,1.031,1.031,0,0,0,.356-.8,1.071,1.071,0,0,0-.281-.772,2.609,2.609,0,0,0-1.018-.549,3.8,3.8,0,0,1-1.545-.808,1.63,1.63,0,0,1-.361-1.109,1.73,1.73,0,0,1,.6-1.332,2.1,2.1,0,0,1,1.464-.546,2.075,2.075,0,0,1,1.447.483,1.874,1.874,0,0,1,.573,1.358h-.974a1.037,1.037,0,0,0-.319-.735,1.12,1.12,0,0,0-.783-.262,1.035,1.035,0,0,0-.745.284.93.93,0,0,0-.3.7.983.983,0,0,0,.125.5,1.124,1.124,0,0,0,.407.367,3.333,3.333,0,0,0,.754.293c.329.094.548.162.659.206a2.1,2.1,0,0,1,.981.714,1.907,1.907,0,0,1,.313,1.131,1.832,1.832,0,0,1-.64,1.431,2.36,2.36,0,0,1-1.62.562,2.151,2.151,0,0,1-1.61-.616,2.386,2.386,0,0,1-.639-1.664m8.2-6.755h.9V157.4a2.538,2.538,0,0,1,.946-.69,3.2,3.2,0,0,1,1.236-.23,2.7,2.7,0,0,1,2.184.807,4.028,4.028,0,0,1,.686,2.62v3.4H229V159.9a3.276,3.276,0,0,0-.465-2.024,1.9,1.9,0,0,0-1.555-.567,2.408,2.408,0,0,0-1.088.234,1.807,1.807,0,0,0-.74.67,1.827,1.827,0,0,0-.235.625,7.087,7.087,0,0,0-.069,1.222v3.254h-.9Zm10.58,5.506a2.669,2.669,0,0,0,2.726,2.721,2.59,2.59,0,0,0,1.917-.78,2.666,2.666,0,0,0,.776-1.952,2.6,2.6,0,0,0-.787-1.949,2.733,2.733,0,0,0-1.99-.763,2.528,2.528,0,0,0-1.864.784,2.646,2.646,0,0,0-.779,1.939m-.955.015a3.4,3.4,0,0,1,1.072-2.52,3.508,3.508,0,0,1,2.54-1.046,3.7,3.7,0,0,1,2.63,1.027,3.264,3.264,0,0,1,1.09,2.455,3.48,3.48,0,0,1-1.067,2.555,3.534,3.534,0,0,1-2.583,1.059,3.6,3.6,0,0,1-2.613-1.041,3.344,3.344,0,0,1-1.068-2.49m10.991-3.355h.9v1.1a2.669,2.669,0,0,1,1.107-.9,3.56,3.56,0,0,1,1.534-.339,3.7,3.7,0,0,1,2.665,1.008,3.5,3.5,0,0,1,.012,5,3.588,3.588,0,0,1-2.605,1.006,3.72,3.72,0,0,1-1.562-.314,2.981,2.981,0,0,1-1.151-.919v3.227h-.9Zm.9,3.307a2.68,2.68,0,0,0,.8,1.955,2.566,2.566,0,0,0,1.886.813,2.667,2.667,0,0,0,1.92-.771,2.517,2.517,0,0,0,.8-1.888,2.727,2.727,0,0,0-2.752-2.764,2.733,2.733,0,0,0-2.654,2.654" transform="translate(-85.194 -105.62)" fill="#fff"/>
      <path id="Path_3036" data-name="Path 3036" d="M88.324,48.526q.2,0,.679.039c1.2.086,2.309.129,3.35.129.534,0,1.112-.018,1.717-.059l2.326-.17c.485-.038.88-.056,1.194-.056.355,0,.53.17.53.5s-.2.53-.625.593a5.389,5.389,0,0,0-2.514.933,40.252,40.252,0,0,0-5.489,5.639q-2.267,2.732-2.48,2.965-.845.937-.846,1.259a5.176,5.176,0,0,0,1.091,1.762q.514.644,2.48,3.517a51,51,0,0,0,5.316,6.716,5.311,5.311,0,0,0,3.461,1.527c.445.041.666.248.666.634,0,.338-.227.516-.68.516-.205,0-.483-.014-.834-.041l-2.381-.188Q93.563,74.6,92.3,74.6c-.584,0-1.137.019-1.668.059l-2.08.129c-.711.041-1.221.06-1.53.06-.431,0-.648-.156-.648-.463,0-.358.236-.556.7-.595q1.538-.116,1.537-1.435a4.891,4.891,0,0,0-.931-2.16q-.929-1.468-3.332-4.621L83.4,64.331c-.161-.228-.291-.339-.376-.339-.1,0-.25.112-.457.339-.324.374-.716.824-1.17,1.359q-4.33,4.953-4.332,6.409c0,1.044.98,1.645,2.95,1.795.421.026.625.2.625.516s-.135.484-.4.484c-.137,0-.376-.02-.717-.059-1.524-.15-3.06-.229-4.6-.229-.434,0-1,.019-1.725.059l-1.685.051-.847.039-.517-.1a.376.376,0,0,1-.166-.327c-.013-.255.148-.417.488-.5a6.637,6.637,0,0,0,2.935-1.527,34.775,34.775,0,0,0,3.958-4.261c1.446-1.761,2.48-2.968,3.1-3.634.936-1.017,1.4-1.664,1.4-1.934a3.846,3.846,0,0,0-.752-1.358,28.392,28.392,0,0,1-2.788,4.265C62.392,85.193,48.214,80.837,46.492,80.113,35.2,75.363,38.733,59.363,44.8,50.478A54.871,54.871,0,0,1,58.533,36a19.041,19.041,0,0,0-9.35,1.163A21.9,21.9,0,0,0,35.945,55.2c-.188,1.538-2.211,2.072-2.7-.06.816-6.259,3.164-15.064,14.661-20.06a20.79,20.79,0,0,1,13.552-.938,35.928,35.928,0,0,1,15.712-4.851c10.627-.719,13.529,8.726,11.121,13.387-.407.785-2.026,1.4-2.569-.582,2.092-8.9-5.478-9.9-8.311-9.772a24.836,24.836,0,0,0-11.488,3.45,20.207,20.207,0,0,1,3.349,2.03l.116-.051c2.661-1.147,12.625-3.658,15.168,6.1,1,3.843.206,8.472-1.347,12.66l.953,1.4q.584.859.91.84c.123-.012.284-.131.491-.36l.872-1.035,1.963-2.37a24.4,24.4,0,0,0,1.945-2.449,2.441,2.441,0,0,0,.387-1.3c0-.842-.522-1.33-1.568-1.475l-.853-.129c-.458-.067-.672-.261-.647-.595s.26-.516.666-.516M79.3,58.646q-.482-.669-1.023-1.44-1.324-1.873-2.309-3.2a18.188,18.188,0,0,1-1.825,5.429c-6.72,13.083-24.6,10.6-20.77-3.315,2.364-8.583,9.168-14.327,13.436-16.98a16.243,16.243,0,0,0-3.261-1.838C56.559,42.275,51.956,49.744,49.6,53.932c-5.388,9.591-5.629,20.9-.772,23.392,3.229,2.328,16.185,1.255,26.995-12.993A33.144,33.144,0,0,0,79.3,58.646m-7.379-8.627a6.647,6.647,0,0,0-1.16-.332c-.478-.09-.717-.3-.717-.632,0-.372.2-.555.606-.555q.323,0,1.061.059l.13.009A15.313,15.313,0,0,0,68.919,41l-.137-.139a24.023,24.023,0,0,0-12.43,14.962c-3.318,12.5,8.725,11.331,13.279,2.838a17.871,17.871,0,0,0,2.288-8.641m4.012-1.235c.131,0,.256,0,.374,0a22.179,22.179,0,0,0,2.455-.117l1.763-.19c.528-.051.93-.078,1.207-.078a.879.879,0,0,1,.306.048,15.486,15.486,0,0,0-.392-4.273c-1.481-6.058-7.894-5.188-10.006-4.493-.106.033-.214.069-.325.1a17.653,17.653,0,0,1,4.619,9m6.042.634a1.207,1.207,0,0,1-.338.079,2.02,2.02,0,0,0-1.112.517,1.1,1.1,0,0,0-.421.9,7.219,7.219,0,0,0,1.094,2.7,23.568,23.568,0,0,0,.776-4.2m30.683,15.092v5.637l.1,1.3q.317,2.155,3.777,2.349c.406.027.607.2.607.543,0,.371-.285.555-.854.555a9.035,9.035,0,0,1-.981-.059L112.62,74.6q-.736-.08-2.215-.078a33.54,33.54,0,0,0-4.707.209,7.309,7.309,0,0,1-1.139.136c-.29,0-.433-.209-.433-.633,0-.235.176-.373.53-.425a4.2,4.2,0,0,0,2.867-1.379,6.38,6.38,0,0,0,.75-3.593V65.194a5.157,5.157,0,0,0-.833-2.663c-.66-1.089-1.384-2.408-2.178-3.936l-2.878-5.469q-1.728-3.29-4.032-3.517-.7-.059-.7-.534c0-.4.174-.6.532-.6a14.14,14.14,0,0,1,1.47.119,34.2,34.2,0,0,0,3.709.229,30.425,30.425,0,0,0,3.118-.17q1.172-.116,1.569-.118c.53,0,.8.163.8.483,0,.268-.213.442-.646.536-.969.187-1.453.619-1.453,1.278a11.07,11.07,0,0,0,1.383,3.518l1.478,2.9q.913,1.762,1.118,2.22c.432.894.846,1.337,1.253,1.337s.929-.645,1.582-1.951c.169-.325.588-1.1,1.264-2.33,1.39-2.519,2.08-4.1,2.08-4.738a1.951,1.951,0,0,0-.924-1.508,4.114,4.114,0,0,0-2.115-.824c-.408-.05-.609-.2-.609-.461,0-.4.163-.593.491-.593a7.545,7.545,0,0,1,.969.056l1.247.17a14.508,14.508,0,0,0,1.891.1c.421,0,.878-.018,1.382-.058l1.589-.09c.407-.026.9-.041,1.5-.041.34,0,.51.149.51.443,0,.267-.227.452-.685.555a4.593,4.593,0,0,0-2.3,1.279,17.2,17.2,0,0,0-2.222,3.556q-2.4,4.681-4.4,7.873a3.326,3.326,0,0,0-.485.958,6.536,6.536,0,0,0-.085,1.3M134.531,48.14a19.018,19.018,0,0,1,7.4,1.855,5.075,5.075,0,0,0,1.376.463.715.715,0,0,0,.481-.188l.2-.2a.7.7,0,0,1,.454-.211c.379-.011.566.217.566.688l-.018,1.335-.076,2.622.056,1.379c.029.339.066.712.118,1.1.013.155.019.266.019.346,0,.409-.193.6-.587.575-.265-.014-.44-.282-.531-.8a8.815,8.815,0,0,0-2.4-4.49,9.061,9.061,0,0,0-6.9-3.1,7.359,7.359,0,0,0-6.173,3.069,13.228,13.228,0,0,0-2.32,8.172,16.742,16.742,0,0,0,2.391,9.2q2.394,3.727,5.89,3.732a9.8,9.8,0,0,0,2.646-.471,9.02,9.02,0,0,0,2.442-1.019,2.59,2.59,0,0,0,1.053-1.453,10.941,10.941,0,0,0,.291-2.957,4.737,4.737,0,0,0-.816-3.181,4.384,4.384,0,0,0-3.042-1c-.392-.025-.587-.209-.587-.557s.229-.52.68-.52c.14,0,.361.012.665.037q1.852.169,4.2.172a34.985,34.985,0,0,0,3.556-.131,10.8,10.8,0,0,1,1.419-.117c.454,0,.679.17.679.5,0,.309-.226.505-.679.6a1.979,1.979,0,0,0-1.515,1.181,8.882,8.882,0,0,0-.414,3.229,11.985,11.985,0,0,0,.058,1.26c.053.64.078,1.083.078,1.338a1.338,1.338,0,0,1-.241.873,2.4,2.4,0,0,1-.956.543c-.29.1-1.29.528-3.008,1.278A20.3,20.3,0,0,1,133.1,75.27a10.886,10.886,0,0,1-8.357-3.5,12.78,12.78,0,0,1-3.24-9.044,15.016,15.016,0,0,1,3.745-10.39,11.946,11.946,0,0,1,9.286-4.2m23.086,4.888v4.15a5.866,5.866,0,0,0,.26,2.259c.169.315.581.475,1.233.475l.568-.017.831-.019h1.611a3.176,3.176,0,0,0,2.9-2.089l.431-.933a.632.632,0,0,1,.569-.368c.277-.012.414.159.414.517,0,.1-.019.384-.058.841-.026.333-.04.616-.04.843,0,.411.058,1.364.169,2.871q.117,1.478.117,2.563l.018.982a.734.734,0,0,1-.057.356.375.375,0,0,1-.306.137c-.314.028-.509-.216-.585-.724a4.126,4.126,0,0,0-1.136-2.472,2.286,2.286,0,0,0-1.2-.589,16.867,16.867,0,0,0-2.653-.135h-1.284a2.056,2.056,0,0,0-1.244.272,1.784,1.784,0,0,0-.437,1.124,27.845,27.845,0,0,0-.118,3.015v1.723a12.853,12.853,0,0,0,.416,3.882,2.5,2.5,0,0,0,.759,1.164,2.391,2.391,0,0,0,1.345.305q7.674,0,10.043-4.725c.091-.151.161-.235.224-.249a.355.355,0,0,1,.349.124.557.557,0,0,1,.163.411,7.294,7.294,0,0,1-1,3.635,5.156,5.156,0,0,1-2.081,2.135,7.334,7.334,0,0,1-3.313.639,26.776,26.776,0,0,1-2.685-.151l-2.2-.208q-1.213-.116-3.275-.116-1.374,0-4.2.17c-.515.039-.89.059-1.114.059a.432.432,0,0,1-.493-.423c-.012-.231.128-.4.415-.517a3.684,3.684,0,0,0,1.471-.888,3.9,3.9,0,0,0,.615-1.672,14.787,14.787,0,0,0,.206-2.753V53.48a4.449,4.449,0,0,0-.693-2.9,4.843,4.843,0,0,0-2.867-1.072.518.518,0,0,1-.511-.553c0-.295.209-.444.628-.444.082,0,.279.012.568.037.224.014.535.02.922.02l1.914.07,7.168.081q6.188,0,7.626-.171a2.193,2.193,0,0,1,.264-.019c.368,0,.551.207.551.633,0,.292.038.816.115,1.565.1,1.1.15,1.9.15,2.388q0,1.451-.739,1.489c-.238.014-.36-.267-.36-.841a3.006,3.006,0,0,0-1.367-2.75,8.773,8.773,0,0,0-4.437-.849h-2.315l-1.285.154c-.639.206-.962.846-.962,1.93Zm25.07-.071L192.7,64.312l.647.731c.859.966,1.428,1.449,1.718,1.449.265,0,.414-.383.439-1.161q.167-4.229.169-8.054c0-3-.3-5.019-.9-6.083S193,49.549,191.248,49.42c-.419-.028-.625-.17-.625-.445,0-.332.18-.5.547-.5a20.379,20.379,0,0,1,2.2.19,14.3,14.3,0,0,0,1.627.117,36.952,36.952,0,0,0,4.147-.364c.252-.027.44-.041.549-.041.408,0,.608.178.608.537,0,.321-.2.509-.608.574q-2.442.458-2.44,4.377v.942l-.266,11.951-.076,1.643-.021,2.128.021,1.454.076,2.388c0,.36-.129.528-.382.517a1.063,1.063,0,0,1-.7-.419L178.675,55.137c-.3-.333-.509-.5-.625-.5-.3,0-.454.284-.454.855l-.018.555v7.42a34.171,34.171,0,0,0,.588,7.956c.414,1.43,1.647,2.237,3.688,2.429.38.037.569.195.569.482a.515.515,0,0,1-.588.574,5.468,5.468,0,0,1-.738-.078,21.524,21.524,0,0,0-3.525-.268,18.394,18.394,0,0,0-3.4.287,6.42,6.42,0,0,1-.967.118c-.342,0-.51-.157-.51-.464,0-.254.179-.432.549-.535a3.121,3.121,0,0,0,2.015-1.653,8.145,8.145,0,0,0,.631-3.608l.138-4.549v-8.3q0-5.884-4.3-6.194c-.395-.026-.588-.182-.588-.482,0-.358.212-.535.646-.535l1.3.059.795-.022c.988,0,2.041-.059,3.164-.168.416-.039.762-.06,1.038-.06a1.492,1.492,0,0,1,.931.263,12.7,12.7,0,0,1,1.435,1.573l1.3,1.544c.517.615.829.988.931,1.112" transform="translate(-33.241 -29.25)" fill="#fff"/>
      <path id="Path_3037" data-name="Path 3037" d="M423.466,62.975a2,2,0,1,0,2.12,2,2.063,2.063,0,0,0-2.12-2m0,4.32a2.327,2.327,0,1,1,2.466-2.322,2.4,2.4,0,0,1-2.466,2.322" transform="translate(-260.461 -49.623)" fill="#fff"/>
      <path id="Path_3038" data-name="Path 3038" d="M425.387,66.122h.4c.415,0,.677-.218.677-.547,0-.372-.28-.534-.69-.539a1.619,1.619,0,0,0-.382.034ZM425,64.81a4.168,4.168,0,0,1,.742-.061,1.269,1.269,0,0,1,.868.236.71.71,0,0,1,.236.548.76.76,0,0,1-.566.734v.014a.721.721,0,0,1,.441.581,4.283,4.283,0,0,0,.232.79h-.4a3.733,3.733,0,0,1-.2-.689c-.087-.4-.248-.546-.6-.559h-.365v1.248H425Z" transform="translate(-262.805 -50.904)" fill="#fff"/>
    </g>
  </g>
</svg>
