<svg xmlns="http://www.w3.org/2000/svg" width="30" height="30" viewBox="0 0 30 30">
  <g id="Group_183558" data-name="Group 183558" transform="translate(-214 -475)">
    <g id="Group_183546" data-name="Group 183546" transform="translate(-8725.452 7862.603)">
      <g id="Ellipse_14904" data-name="Ellipse 14904" transform="translate(8951.343 -7377.606)" fill="none" stroke="#282c3f" stroke-width="1.5">
        <circle cx="3.325" cy="3.325" r="3.325" stroke="none"/>
        <circle cx="3.325" cy="3.325" r="2.575" fill="none"/>
      </g>
      <path id="Path_155511" data-name="Path 155511" d="M8957.56-7409.068v4.954l3.093-1.442,3.013,1.442v-4.954" transform="translate(-6.007 42.819)" fill="none" stroke="#282c3f" stroke-linecap="round" stroke-linejoin="round" stroke-width="1.5"/>
      <g id="Path_155512" data-name="Path 155512" transform="matrix(1, -0.017, 0.017, 1, 8945.363, -7383.779)" fill="none">
        <path d="M7.076,1.4a2.241,2.241,0,0,1,4.155,0l.017.043A2.241,2.241,0,0,0,13.96,2.753l.062-.018A2.241,2.241,0,0,1,16.63,5.946l-.13.242a2.241,2.241,0,0,0,.654,2.874l.23.168a2.241,2.241,0,0,1-.934,4.019l-.189.033a2.241,2.241,0,0,0-1.852,2.329l.009.168a2.241,2.241,0,0,1-3.751,1.774h0a2.241,2.241,0,0,0-3.027,0h0a2.241,2.241,0,0,1-3.751-1.774L3.9,15.61a2.241,2.241,0,0,0-1.852-2.329l-.189-.033A2.241,2.241,0,0,1,.923,9.229l.23-.168a2.241,2.241,0,0,0,.654-2.874l-.13-.242A2.241,2.241,0,0,1,4.285,2.734l.062.018A2.241,2.241,0,0,0,7.059,1.443Z" stroke="none"/>
        <path d="M 9.153323173522949 1.499994277954102 C 9.003092765808105 1.499994277954102 8.635422706604004 1.545133590698242 8.466403007507324 1.963184356689453 L 8.449203491210938 2.005733489990234 C 7.874692916870117 3.426713943481445 6.513513565063477 4.344883918762207 4.981423377990723 4.344883918762207 C 4.623513221740723 4.344883918762207 4.267192840576172 4.293303489685059 3.922432899475098 4.191583633422852 L 3.860043525695801 4.173173904418945 C 3.781522750854492 4.15001392364502 3.704723358154297 4.138263702392578 3.631763458251953 4.138273239135742 C 3.336883544921875 4.138293266296387 3.116403579711914 4.331513404846191 3.008393287658691 4.512333869934082 C 2.912532806396484 4.672813415527344 2.832913398742676 4.928463935852051 2.997942924499512 5.235043525695801 L 3.128152847290039 5.476943969726562 C 4.010343551635742 7.115793228149414 3.541132926940918 9.178023338317871 2.036733627319336 10.27386379241943 L 1.806472778320312 10.4416036605835 C 1.448623657226562 10.70226287841797 1.48762321472168 11.06453323364258 1.521003723144531 11.2081937789917 C 1.554372787475586 11.35184288024902 1.679092407226562 11.69420337677002 2.115163803100586 11.77039337158203 L 2.303934097290039 11.80336380004883 C 4.169162750244141 12.12926292419434 5.498252868652344 13.80079364776611 5.395503044128418 15.69145393371582 L 5.386373519897461 15.85955333709717 C 5.374683380126953 16.07465362548828 5.437663078308105 16.2564640045166 5.573553085327148 16.39993286132812 C 5.71953296661377 16.55406379699707 5.931802749633789 16.64608383178711 6.141383171081543 16.64608383178711 C 6.31855297088623 16.64608383178711 6.481833457946777 16.57882308959961 6.626672744750977 16.44616317749023 C 7.318243026733398 15.81279373168945 8.215553283691406 15.4639835357666 9.153323173522949 15.4639835357666 C 10.09108352661133 15.4639835357666 10.98839378356934 15.81279373168945 11.67996311187744 16.44616317749023 C 11.82684326171875 16.5806941986084 11.98558330535889 16.64608383178711 12.16525268554688 16.64608383178711 C 12.37478256225586 16.64608383178711 12.58704376220703 16.55404281616211 12.73306274414062 16.39987373352051 C 12.86897277832031 16.25638389587402 12.93196296691895 16.07459259033203 12.92027282714844 15.8596134185791 L 12.9111328125 15.69149398803711 C 12.80838298797607 13.80079364776611 14.13747310638428 12.12926292419434 16.00275421142578 11.80336380004883 L 16.19144248962402 11.77039337158203 C 16.62755393981934 11.69420337677002 16.75227355957031 11.35184288024902 16.78564262390137 11.2081937789917 C 16.81902313232422 11.06453323364258 16.85802268981934 10.70226287841797 16.50017356872559 10.44159317016602 L 16.26992416381836 10.2738733291626 C 14.76551342010498 9.178033828735352 14.29630279541016 7.115803718566895 15.17848300933838 5.476963996887207 L 15.30871295928955 5.235033988952637 C 15.4738130569458 4.928313255310059 15.3941535949707 4.672603607177734 15.29826354980469 4.512093544006348 C 15.19028282165527 4.331363677978516 14.96988296508789 4.138253211975098 14.67513275146484 4.138273239135742 C 14.60195350646973 4.138283729553223 14.52507305145264 4.150023460388184 14.44654273986816 4.17319393157959 L 14.38426303863525 4.191563606262207 C 14.03943252563477 4.293303489685059 13.6831226348877 4.344883918762207 13.3252124786377 4.344883918762207 C 11.79313278198242 4.344883918762207 10.43195343017578 3.426713943481445 9.857433319091797 2.005702972412109 L 9.840252876281738 1.963224411010742 C 9.671213150024414 1.545133590698242 9.303553581237793 1.499994277954102 9.153323173522949 1.499994277954102 M 9.153323173522949 -3.814697265625e-06 C 10.00330066680908 -3.814697265625e-06 10.85327816009521 0.4669895172119141 11.2308931350708 1.400974273681641 L 11.24808311462402 1.443492889404297 C 11.6803731918335 2.512723922729492 12.85362529754639 3.079240798950195 13.95979309082031 2.752873420715332 L 14.02213287353516 2.73448371887207 C 15.93214988708496 2.170957565307617 17.57340240478516 4.192502975463867 16.62951278686523 5.946003913879395 L 16.49929237365723 6.187923431396484 C 15.96821308135986 7.174513816833496 16.24743270874023 8.4017333984375 17.1530933380127 9.061433792114258 L 17.38335227966309 9.22916316986084 C 18.98217391967773 10.39379405975342 18.39811325073242 12.90757369995117 16.44961357116699 13.24801349639893 L 16.26088333129883 13.28098297119141 C 15.14281272888184 13.47633361816406 14.34733295440674 14.47675323486328 14.40892314910889 15.61009407043457 L 14.41806316375732 15.77816390991211 C 14.52700328826904 17.78294372558594 12.14746475219727 18.90837287902832 10.66686248779297 17.55234336853027 C 9.810312271118164 16.76786231994629 8.496332168579102 16.76786422729492 7.639773368835449 17.55234336853027 C 6.159184455871582 18.90837287902832 3.779643058776855 17.78294372558594 3.888583183288574 15.77816390991211 L 3.897712707519531 15.61009407043457 C 3.95930290222168 14.47675323486328 3.163833618164062 13.47633361816406 2.04576301574707 13.28098297119141 L 1.857032775878906 13.24801349639893 C -0.09146690368652344 12.90757369995117 -0.6755275726318359 10.39379405975342 0.9232940673828125 9.22916316986084 L 1.153553009033203 9.061433792114258 C 2.0592041015625 8.4017333984375 2.338433265686035 7.174513816833496 1.807353973388672 6.187923431396484 L 1.677133560180664 5.946003913879395 C 0.7332324981689453 4.192503929138184 2.37448787689209 2.17094612121582 4.284502983093262 2.73448371887207 L 4.346842765808105 2.752873420715332 C 5.453019142150879 3.079241752624512 6.626263618469238 2.512723922729492 7.058563232421875 1.443492889404297 L 7.075753211975098 1.400974273681641 C 7.453368186950684 0.4669895172119141 8.303345680236816 -3.814697265625e-06 9.153323173522949 -3.814697265625e-06 Z" stroke="none" fill="#e50019"/>
      </g>
    </g>
    <rect id="Rectangle_66143" data-name="Rectangle 66143" width="30" height="30" transform="translate(214 475)" fill="none"/>
  </g>
</svg>
