<svg xmlns="http://www.w3.org/2000/svg" xmlns:xlink="http://www.w3.org/1999/xlink" width="24.141" height="24.141" viewBox="0 0 24.141 24.141">
  <defs>
    <clipPath id="clip-path">
      <rect id="Rectangle_62968" data-name="Rectangle 62968" width="7.112" height="12.806" fill="#fff"/>
    </clipPath>
  </defs>
  <g id="Group_182950" data-name="Group 182950" transform="translate(0 0)">
    <path id="Path_146077" data-name="Path 146077" d="M0,11.88A11.88,11.88,0,1,1,11.88,23.76,11.88,11.88,0,0,1,0,11.88" transform="translate(0 0)" fill="#f6d738"/>
    <path id="Path_146078" data-name="Path 146078" d="M48.042,58.124A10.082,10.082,0,1,1,58.124,68.207,10.082,10.082,0,0,1,48.042,58.124" transform="translate(-46.244 -46.244)" fill="#f3cc30"/>
    <path id="Path_146079" data-name="Path 146079" d="M104.206,87.517a10.084,10.084,0,0,1-13.771,14.024,10.083,10.083,0,1,0,13.771-14.024" transform="translate(-87.051 -84.242)" fill="#edbd31" opacity="0.552"/>
    <path id="Path_146080" data-name="Path 146080" d="M78.2,87.738a8.9,8.9,0,0,1,15.955-5.425,8.9,8.9,0,1,0-14.772,9.861A8.859,8.859,0,0,1,78.2,87.738" transform="translate(-74.638 -74.935)" fill="#f7db5e" opacity="0.454"/>
    <g id="Group_182949" data-name="Group 182949" transform="translate(8.323 5.477)">
      <g id="Group_182949-2" data-name="Group 182949" clip-path="url(#clip-path)">
        <path id="Path_146082" data-name="Path 146082" d="M1.651,7.584H.182c-.106,0-.173-.042-.181-.131a.262.262,0,0,1,.038-.142q.47-.831.944-1.66L4.142.108c.009-.016.018-.032.027-.048A.1.1,0,0,1,4.29.006a.1.1,0,0,1,.066.115C4.341.247,4.325.373,4.31.5L4.177,1.57q-.067.539-.133,1.078T3.913,3.72q-.065.532-.131,1.064c-.01.078-.021.156-.028.234a.177.177,0,0,0,.154.2.589.589,0,0,0,.1.005H6.9c.077,0,.148.005.191.083a.18.18,0,0,1-.02.189L5.928,7.5,2.972,12.689c-.011.02-.022.04-.034.06a.1.1,0,0,1-.116.052.1.1,0,0,1-.07-.113c.015-.126.031-.252.046-.378l.134-1.085.117-.948L3.18,9.206q.067-.542.134-1.085c.014-.11.027-.22.039-.33a.177.177,0,0,0-.15-.2.592.592,0,0,0-.1-.007H1.651" transform="translate(0 0)" fill="#fff"/>
      </g>
    </g>
    <rect id="Rectangle_62967" data-name="Rectangle 62967" width="24.094" height="24.094" transform="translate(0.046 0.046)" fill="none"/>
  </g>
</svg>
