<svg xmlns="http://www.w3.org/2000/svg" width="19.509" height="21.578" viewBox="0 0 19.509 21.578">
  <g id="fi_package_1_" data-name="fi_package (1)" transform="translate(-2.245 -1.252)">
    <path id="Path_41325" data-name="Path 41325" d="M16.5,9.4l-9-5.19" fill="none" stroke="#ffffff" stroke-linecap="round" stroke-linejoin="round" stroke-width="1.5"/>
    <path id="Path_41326" data-name="Path 41326" d="M21,16V8a2,2,0,0,0-1-1.73l-7-4a2,2,0,0,0-2,0l-7,4A2,2,0,0,0,3,8v8a2,2,0,0,0,1,1.73l7,4a2,2,0,0,0,2,0l7-4A2,2,0,0,0,21,16Z" fill="none" stroke="#ffffff" stroke-linecap="round" stroke-linejoin="round" stroke-width="1.5"/>
    <path id="Path_41327" data-name="Path 41327" d="M3.27,6.96,12,12.01l8.73-5.05" fill="none" stroke="#ffffff" stroke-linecap="round" stroke-linejoin="round" stroke-width="1.5"/>
    <path id="Path_41328" data-name="Path 41328" d="M12,22.08V12" fill="none" stroke="#ffffff" stroke-linecap="round" stroke-linejoin="round" stroke-width="1.5"/>
  </g>
</svg>
