<svg xmlns="http://www.w3.org/2000/svg" xmlns:xlink="http://www.w3.org/1999/xlink" width="30" height="30" viewBox="0 0 30 30">
  <defs>
    <clipPath id="clip-path">
      <rect id="Rectangle_15008" data-name="Rectangle 15008" width="30" height="30" transform="translate(46 236)" fill="#fff" stroke="#707070" stroke-width="1"/>
    </clipPath>
  </defs>
  <g id="Mask_Group_4587" data-name="Mask Group 4587" transform="translate(-46 -236)" clip-path="url(#clip-path)">
    <g id="Group_28127" data-name="Group 28127" transform="translate(-37.521 -0.345)">
      <g id="Group_28127-2" data-name="Group 28127" transform="translate(87.271 241)">
        <path id="Path_41392" data-name="Path 41392" d="M1182.213,386.433h-21.525v-2.245l10.719-6.335,10.806,6.25Z" transform="translate(-1160.688 -377.853)" fill="none" stroke="#282c3f" stroke-linecap="round" stroke-width="1.3"/>
        <line id="Line_984" data-name="Line 984" y2="9.407" transform="translate(2.358 8.453)" fill="none" stroke="#282c3f" stroke-width="1.3"/>
        <line id="Line_985" data-name="Line 985" y2="9.407" transform="translate(5.409 8.453)" fill="none" stroke="#282c3f" stroke-width="1.3"/>
        <line id="Line_986" data-name="Line 986" y2="9.407" transform="translate(9.392 8.453)" fill="none" stroke="#282c3f" stroke-width="1.3"/>
        <line id="Line_987" data-name="Line 987" y2="9.407" transform="translate(12.161 8.453)" fill="none" stroke="#282c3f" stroke-width="1.3"/>
        <line id="Line_988" data-name="Line 988" y2="9.407" transform="translate(16.398 8.453)" fill="none" stroke="#282c3f" stroke-width="1.3"/>
        <line id="Line_989" data-name="Line 989" y2="9.407" transform="translate(19.167 8.453)" fill="none" stroke="#282c3f" stroke-width="1.3"/>
        <path id="Rectangle_15092" data-name="Rectangle 15092" d="M2.717,0H17.529a2.717,2.717,0,0,1,2.717,2.717v0a0,0,0,0,1,0,0H0a0,0,0,0,1,0,0v0A2.717,2.717,0,0,1,2.717,0Z" transform="translate(0.639 17.635)" fill="none" stroke="#282c3f" stroke-width="1.3"/>
      </g>
    </g>
  </g>
</svg>
