<svg xmlns="http://www.w3.org/2000/svg" width="251" height="154" viewBox="0 0 251 154">
  <g id="Group_183838" data-name="Group 183838" transform="translate(-9057 -3089)">
    <ellipse id="Ellipse_11541" data-name="Ellipse 11541" cx="125.5" cy="10.5" rx="125.5" ry="10.5" transform="translate(9057 3222)" fill="#f2f8fc"/>
    <g id="Group_183837" data-name="Group 183837">
      <g id="Group_183836" data-name="Group 183836" transform="translate(31 -8)">
        <g id="Group_183833" data-name="Group 183833" transform="translate(13.248 -26.81)">
          <g id="Ellipse_78811" data-name="Ellipse 78811" transform="translate(9123.752 3129.81)" fill="none" stroke="#292c3e" stroke-width="2">
            <circle cx="28.5" cy="28.5" r="28.5" stroke="none"/>
            <circle cx="28.5" cy="28.5" r="27.5" fill="none"/>
          </g>
          <g id="Ellipse_78810" data-name="Ellipse 78810" transform="translate(9117.752 3123.81)" fill="none" stroke="#292c3e" stroke-width="2">
            <circle cx="34.5" cy="34.5" r="34.5" stroke="none"/>
            <circle cx="34.5" cy="34.5" r="33.5" fill="none"/>
          </g>
          <path id="Path_155594" data-name="Path 155594" d="M9144.518,3133.359l-11.6,21.425H9142l-1.475,14.419,12.4-21.094h-9.9Z" transform="translate(9.426 5.932)" fill="none" stroke="#292c3e" stroke-linecap="round" stroke-linejoin="round" stroke-width="2"/>
        </g>
        <g id="Group_183834" data-name="Group 183834" transform="translate(642.624 -90.419)">
          <path id="Path_155595" data-name="Path 155595" d="M8452.06,3259.7h18.63v41.241h-18.63Z" fill="none" stroke="#292c3e" stroke-linecap="round" stroke-width="2"/>
          <path id="Path_155596" data-name="Path 155596" d="M8534.454,3273.9c.291-.023,23.875-6.367,23.875-6.367s8.437-2.938,14.392-.72,17.647,6.495,17.647,6.495,4.6,1.591,2.822,7.062-8.308,3.869-8.308,3.869l-20.233-3.869" transform="translate(-63.765 -4.864)" fill="none" stroke="#292c3e" stroke-width="2"/>
          <path id="Path_155597" data-name="Path 155597" d="M8592.764,3326.192l31.584-2.344s4.947-.437,5.678,3.7c.721,3.179-5.961,5.7-5.961,5.7l-34.188,14.309s-10.975,4-21.538-2.06a25.083,25.083,0,0,0-12.471-3.623c-7.373-.017-14.069.329-21.477,3.2" transform="translate(-63.716 -49.638)" fill="none" stroke="#292c3e" stroke-width="2"/>
        </g>
      </g>
      <g id="Group_24542" data-name="Group 24542" transform="translate(8461.453 2554.624)">
        <g id="Group_6828" data-name="Group 6828">
          <g id="Path_28604" data-name="Path 28604">
            <path id="Path_32344" data-name="Path 32344" d="M781.194,598.1a1.074,1.074,0,0,1-1.073-1.074h0v-6.66a1.073,1.073,0,0,1,2.146,0v6.66A1.073,1.073,0,0,1,781.2,598.1Z" fill="#da001a"/>
          </g>
        </g>
        <g id="Group_6829" data-name="Group 6829">
          <g id="Path_28605" data-name="Path 28605">
            <path id="Path_32345" data-name="Path 32345" d="M781.194,611.106a1.073,1.073,0,0,1-1.073-1.073h0v-6.66a1.073,1.073,0,0,1,2.146,0v6.66a1.072,1.072,0,0,1-1.072,1.073Z" fill="#da001a"/>
          </g>
        </g>
        <g id="Group_6830" data-name="Group 6830">
          <g id="Path_28606" data-name="Path 28606">
            <path id="Path_32346" data-name="Path 32346" d="M791.024,601.276h-6.659a1.073,1.073,0,0,1,0-2.146h6.659a1.073,1.073,0,0,1,0,2.146Z" fill="#da001a"/>
          </g>
        </g>
        <g id="Group_6831" data-name="Group 6831">
          <g id="Path_28607" data-name="Path 28607">
            <path id="Path_32347" data-name="Path 32347" d="M778.022,601.276h-6.66a1.073,1.073,0,0,1,0-2.146h6.66a1.073,1.073,0,0,1,0,2.146Z" fill="#da001a"/>
          </g>
        </g>
      </g>
      <g id="Group_24545" data-name="Group 24545" transform="translate(8554.605 2422.481)">
        <g id="Group_6828-4" data-name="Group 6828-4">
          <g id="Path_28604-4" data-name="Path 28604-4">
            <path id="Path_32356" data-name="Path 32356" d="M587.194,687.1a1.074,1.074,0,0,1-1.073-1.074h0v-6.66a1.073,1.073,0,0,1,2.146,0v6.66A1.073,1.073,0,0,1,587.2,687.1Z" fill="#292c3e"/>
          </g>
        </g>
        <g id="Group_6829-4" data-name="Group 6829-4">
          <g id="Path_28605-4" data-name="Path 28605-4">
            <path id="Path_32357" data-name="Path 32357" d="M587.194,700.106a1.073,1.073,0,0,1-1.073-1.073h0v-6.66a1.073,1.073,0,0,1,2.146,0v6.66a1.072,1.072,0,0,1-1.072,1.073Z" fill="#292c3e"/>
          </g>
        </g>
        <g id="Group_6830-4" data-name="Group 6830-4">
          <g id="Path_28606-4" data-name="Path 28606-4">
            <path id="Path_32358" data-name="Path 32358" d="M597.024,690.276h-6.659a1.073,1.073,0,0,1,0-2.146h6.659a1.073,1.073,0,0,1,0,2.146Z" fill="#292c3e"/>
          </g>
        </g>
        <g id="Group_6831-4" data-name="Group 6831-4">
          <g id="Path_28607-4" data-name="Path 28607-4">
            <path id="Path_32359" data-name="Path 32359" d="M584.022,690.276h-6.66a1.073,1.073,0,0,1,0-2.146h6.66a1.073,1.073,0,0,1,0,2.146Z" fill="#292c3e"/>
          </g>
        </g>
      </g>
    </g>
  </g>
</svg>
