<svg xmlns="http://www.w3.org/2000/svg" width="60.332" height="66.345" viewBox="0 0 60.332 66.345">
  <g id="Group_183311" data-name="Group 183311" transform="translate(-223 -338.655)">
    <g id="sdacc" transform="translate(224 344.442)">
      <path id="Path_155409" data-name="Path 155409" d="M49.176,20.47a18.924,18.924,0,0,0-1.146-6.405A18.106,18.106,0,0,0,43.766,7.41a18.682,18.682,0,0,0-4.113-3.082,19.906,19.906,0,0,0-2.465-1.153A18.027,18.027,0,0,0,30.706,2,18.47,18.47,0,0,0,12.235,20.47C12.235,42.019,3,48.176,3,48.176H58.412S49.176,42.019,49.176,20.47Z" transform="translate(-3 -2)" fill="none" stroke="#454545" stroke-linejoin="round" stroke-width="2"/>
      <path id="Path_155410" data-name="Path 155410" d="M20.921,21A6.157,6.157,0,0,1,10.27,21" transform="translate(12.11 35.49)" fill="none" stroke="#454545" stroke-linejoin="round" stroke-width="2"/>
    </g>
    <g id="Path_155411" data-name="Path 155411" transform="translate(258.332 338.655)" fill="#fff">
      <path d="M 12.50011920928955 23.99968147277832 C 9.428318977355957 23.99968147277832 6.540389060974121 22.80348014831543 4.368299007415771 20.63145065307617 C 2.196219205856323 18.45941162109375 0.9999992251396179 15.5715503692627 0.9999992251396179 12.49984073638916 C 0.9999992251396179 9.428131103515625 2.196219205856323 6.540270805358887 4.368299007415771 4.368230819702148 C 6.540389060974121 2.196200847625732 9.428318977355957 1.000000715255737 12.50011920928955 1.000000715255737 C 15.57191944122314 1.000000715255737 18.45984840393066 2.196200847625732 20.63193893432617 4.368230819702148 C 22.80401992797852 6.540270805358887 24.0002384185791 9.428131103515625 24.0002384185791 12.49984073638916 C 24.0002384185791 15.5715503692627 22.80401992797852 18.45941162109375 20.63193893432617 20.63145065307617 C 18.45984840393066 22.80348014831543 15.57191944122314 23.99968147277832 12.50011920928955 23.99968147277832 Z" stroke="none"/>
      <path d="M 12.50011920928955 2 C 6.710329055786133 2 2 6.710210800170898 2 12.49984073638916 C 2 18.28947067260742 6.710329055786133 22.99968147277832 12.50011920928955 22.99968147277832 C 18.28990936279297 22.99968147277832 23.0002384185791 18.28947067260742 23.0002384185791 12.49984073638916 C 23.0002384185791 6.710210800170898 18.28990936279297 2 12.50011920928955 2 M 12.50011920928955 0 C 19.40373992919922 0 25.0002384185791 5.596370697021484 25.0002384185791 12.49984073638916 C 25.0002384185791 19.40331077575684 19.40373992919922 24.99968147277832 12.50011920928955 24.99968147277832 C 5.596498489379883 24.99968147277832 0 19.40331077575684 0 12.49984073638916 C 0 5.596370697021484 5.596498489379883 0 12.50011920928955 0 Z" stroke="none" fill="#e50019"/>
    </g>
    <g id="Group_28134" data-name="Group 28134" transform="translate(270.823 347.594)">
      <path id="Path_41404" data-name="Path 41404" d="M416.06,443.615h.009" transform="translate(-416.06 -434.92)" fill="none" stroke="#e50019" stroke-linecap="round" stroke-linejoin="round" stroke-width="2"/>
      <path id="Path_41405" data-name="Path 41405" d="M416.06,433.919v5.06" transform="translate(-416.06 -433.919)" fill="none" stroke="#e50019" stroke-linecap="round" stroke-linejoin="round" stroke-width="2"/>
    </g>
  </g>
</svg>
