<svg xmlns="http://www.w3.org/2000/svg" width="18.082" height="20.155" viewBox="0 0 18.082 20.155">
  <g id="Group_27049" data-name="Group 27049" transform="translate(-329.25 -65.505)">
    <g id="Bell" transform="translate(330 66.255)">
      <path id="Path_32390" data-name="Path 32390" d="M17.819,8.389A5.322,5.322,0,0,0,16.2,4.578a5.628,5.628,0,0,0-7.817,0A5.322,5.322,0,0,0,6.764,8.389C6.764,14.677,4,17.51,4,17.51H20.582S17.819,14.677,17.819,8.389Z" transform="translate(-4 -3)" fill="none" stroke="#fff" stroke-linecap="round" stroke-linejoin="round" stroke-width="1.5"/>
      <path id="Path_32391" data-name="Path 32391" d="M14.146,20a2.266,2.266,0,0,1-.877.759,2.715,2.715,0,0,1-2.392,0A2.266,2.266,0,0,1,10,20" transform="translate(-3.782 -2.381)" fill="none" stroke="#fff" stroke-width="1.5"/>
    </g>
  </g>
</svg>
