<svg xmlns="http://www.w3.org/2000/svg" xmlns:xlink="http://www.w3.org/1999/xlink" width="30" height="30" viewBox="0 0 30 30">
  <defs>
    <clipPath id="clip-path">
      <rect id="Rectangle_15021" data-name="Rectangle 15021" width="30" height="30" transform="translate(46 301)" fill="#fff" stroke="#707070" stroke-width="1"/>
    </clipPath>
  </defs>
  <g id="Mask_Group_4594" data-name="Mask Group 4594" transform="translate(-46 -301)" clip-path="url(#clip-path)">
    <g id="Group_28126" data-name="Group 28126" transform="translate(-843.582 -32.849)">
      <path id="Rectangle_15089" data-name="Rectangle 15089" d="M0,0H17.4a1.149,1.149,0,0,1,1.149,1.149V11.158A1.149,1.149,0,0,1,17.4,12.307H1.149A1.149,1.149,0,0,1,0,11.158V0A0,0,0,0,1,0,0Z" transform="translate(895.312 344.706)" fill="none" stroke="#282c3f" stroke-width="1.3"/>
      <path id="Rectangle_15090" data-name="Rectangle 15090" d="M1.905,0h9.758a1.865,1.865,0,0,1,1.865,1.865V3.393a0,0,0,0,1,0,0H0a0,0,0,0,1,0,0V1.905A1.905,1.905,0,0,1,1.905,0Z" transform="translate(895.312 341.313)" fill="none" stroke="#282c3f" stroke-width="1.3"/>
      <path id="Rectangle_15091" data-name="Rectangle 15091" d="M1.627,0H4.406a0,0,0,0,1,0,0V3.393a0,0,0,0,1,0,0H1.627A1.627,1.627,0,0,1,0,1.766V1.627A1.627,1.627,0,0,1,1.627,0Z" transform="translate(909.453 349.163)" fill="none" stroke="#282c3f" stroke-width="1.3"/>
    </g>
  </g>
</svg>
