<svg xmlns="http://www.w3.org/2000/svg" width="56.917" height="80.529" viewBox="0 0 56.917 80.529">
  <g id="Group_27745" data-name="Group 27745" transform="translate(-156.016 -258.481)">
    <g id="_50-phone" data-name="50-phone" transform="translate(169.699 259.481)">
      <path id="Path_40975" data-name="Path 40975" d="M15.3,78.9H44.542a4.962,4.962,0,0,0,4.693-5.193V6.193A4.962,4.962,0,0,0,44.542,1H11.693A4.962,4.962,0,0,0,7,6.193V46.986" transform="translate(-7 -1)" fill="none" stroke="#454545" stroke-linejoin="round" stroke-width="2"/>
      <path id="Path_40976" data-name="Path 40976" d="M12,1V4.448c0,1.9,2.118,3.448,4.73,3.448h9.46c2.612,0,4.73-1.544,4.73-3.448V1" transform="translate(-0.343 -1)" fill="none" stroke="#454545" stroke-linejoin="round" stroke-width="2"/>
    </g>
    <g id="Group_27759" data-name="Group 27759" transform="translate(156.713 310.278)">
      <circle id="XMLID_42_" cx="10.913" cy="10.913" r="10.913" transform="translate(6.366 0)" fill="none" stroke="#e50019" stroke-linejoin="round" stroke-width="2"/>
      <line id="XMLID_44_" y1="9.224" x2="9.5" transform="translate(0 18.791)" fill="none" stroke="#e50019" stroke-linejoin="round" stroke-width="2"/>
    </g>
    <path id="Path_41404" data-name="Path 41404" d="M416.06,443.615h.012" transform="translate(-241.577 -117.231)" fill="none" stroke="#e50019" stroke-linecap="round" stroke-linejoin="round" stroke-width="2"/>
    <path id="Path_41405" data-name="Path 41405" d="M416.06,433.919v4.848" transform="translate(-241.577 -117.231)" fill="none" stroke="#e50019" stroke-linecap="round" stroke-linejoin="round" stroke-width="2"/>
  </g>
</svg>
