<svg xmlns="http://www.w3.org/2000/svg" width="30" height="30" viewBox="0 0 30 30">
  <g id="Group_183555" data-name="Group 183555" transform="translate(-32 -424)">
    <rect id="Rectangle_66143" data-name="Rectangle 66143" width="30" height="30" transform="translate(32 424)" fill="none"/>
    <g id="Group_183545" data-name="Group 183545" transform="translate(36.313 427.946)">
      <path id="Icon_ionic-md-settings" d="M14.855,13.615a4.335,4.335,0,0,0,.379-.586c.122-.211.2-.41.317-.621l1.871-.247a.32.32,0,0,0,.288-.357l-.032-2.8a.347.347,0,0,0-.3-.335l-1.892-.287a5.2,5.2,0,0,0-.7-1.209l.707-1.724a.381.381,0,0,0-.169-.419L12.854,3.608a.382.382,0,0,0-.448.063l-1.17,1.457a6.053,6.053,0,0,0-1.4,0L8.643,3.631a.334.334,0,0,0-.44-.093L5.766,4.907a.42.42,0,0,0-.165.428L6.354,7.1c-.122.211-.257.375-.379.586s-.2.41-.317.621l-1.871.247a.32.32,0,0,0-.288.357l.033,2.8a.347.347,0,0,0,.3.335l1.892.287a5.2,5.2,0,0,0,.7,1.209m2.961-1.067a2.44,2.44,0,1,1,3.38-.865,2.452,2.452,0,0,1-3.38.865Z" transform="translate(2.232 -3.492)" fill="none" stroke="#e50019" stroke-linecap="round" stroke-linejoin="round" stroke-width="1.5"/>
      <path id="Path_155452" data-name="Path 155452" d="M-768.13,13589.174l3.49-1.391,1.887,6.852-2.824,1.48" transform="translate(768.13 -13573.841)" fill="none" stroke="#282c3f" stroke-linecap="round" stroke-linejoin="round" stroke-width="1.5"/>
      <path id="Path_155453" data-name="Path 155453" d="M-705.177,13575.227l2.876-1.371a7.736,7.736,0,0,1,2.986-.6c1.452.067,4.588,0,4.588,0a1.247,1.247,0,0,1,1.352,1.382,1.31,1.31,0,0,1-1.352,1.389h-3.265" transform="translate(708.96 -13560.275)" fill="none" stroke="#282c3f" stroke-linecap="round" stroke-width="1.5"/>
      <path id="Path_155454" data-name="Path 155454" d="M-685.377,13579.029l2.986-1.538,3.257.967a5.373,5.373,0,0,0,3.652-.419c-.006,0,6.576-3.668,6.576-3.668a1.108,1.108,0,0,0,.392-1.628,1.351,1.351,0,0,0-1.587-.543l-4.8,1.547" transform="translate(690.481 -13559.229)" fill="none" stroke="#282c3f" stroke-linejoin="round" stroke-width="1.5"/>
    </g>
  </g>
</svg>
