<svg xmlns="http://www.w3.org/2000/svg" width="19.511" height="19.666" viewBox="0 0 19.511 19.666">
  <path id="Path_146032" data-name="Path 146032" d="M4.548,8.761,2.921,6.049,4.006,4.964,6.718,6.591l.2.982,4.1,3.937c0,.078-1.681,1.5-1.681,1.5L5.367,9.065Zm9.136,4.793c-.152.174-.335.365-2.41,2.753L16,21.37a2.195,2.195,0,1,0,3.1-3.1ZM19.568,11.7a4.847,4.847,0,0,0,1.163-4.728c-.078-.31-.579-.618-.734-.385L17.271,9.329,15.6,7.573l2.678-2.84c.233-.233-.182-.625-.492-.7a4.517,4.517,0,0,0-4.728,1.163,4.768,4.768,0,0,0-.93,5.27l-7.75,6.9A2.16,2.16,0,0,0,4.3,20.54h0a2.158,2.158,0,0,0,3.178-.078l6.9-7.75A4.541,4.541,0,0,0,19.568,11.7Z" transform="translate(-2.102 -3.092)" fill="none" stroke="#292c3e" stroke-width="1.3"/>
</svg>
