<svg xmlns="http://www.w3.org/2000/svg" width="23.317" height="23.473" viewBox="0 0 23.317 23.473">
  <g id="Group_183344" data-name="Group 183344" transform="translate(769.039 -13392.26)">
    <path id="Icon_ionic-md-settings" d="M14.606,13.393a4.24,4.24,0,0,0,.371-.573c.119-.207.192-.4.31-.608l1.83-.242a.313.313,0,0,0,.282-.349l-.031-2.734a.34.34,0,0,0-.294-.327l-1.851-.281A5.087,5.087,0,0,0,14.538,7.1L15.23,5.41A.373.373,0,0,0,15.064,5L12.649,3.606a.373.373,0,0,0-.438.062L11.066,5.092a5.92,5.92,0,0,0-1.367,0L8.53,3.628a.327.327,0,0,0-.43-.091L5.717,4.876a.411.411,0,0,0-.161.419l.736,1.723c-.119.207-.252.366-.371.573s-.192.4-.31.608l-1.83.242A.313.313,0,0,0,3.5,8.79l.032,2.734a.34.34,0,0,0,.294.327l1.851.281a5.087,5.087,0,0,0,.685,1.183m2.9-1.043a2.386,2.386,0,1,1,3.306-.846,2.4,2.4,0,0,1-3.306.846Z" transform="translate(-766.025 13389.509)" fill="none" stroke="#282c3f" stroke-linecap="round" stroke-linejoin="round" stroke-width="1.4"/>
    <path id="Path_155452" data-name="Path 155452" d="M-768.13,13589.144l3.413-1.36,1.846,6.7-2.762,1.449" transform="translate(0 -181.147)" fill="none" stroke="#282c3f" stroke-linecap="round" stroke-linejoin="round" stroke-width="1.4"/>
    <path id="Path_155453" data-name="Path 155453" d="M-705.177,13575.184l2.813-1.34a7.562,7.562,0,0,1,2.921-.59c1.42.066,4.487,0,4.487,0a1.221,1.221,0,0,1,1.322,1.352,1.283,1.283,0,0,1-1.322,1.359h-3.194" transform="translate(-59.253 -167.561)" fill="none" stroke="#282c3f" stroke-linecap="round" stroke-width="1.4"/>
    <path id="Path_155454" data-name="Path 155454" d="M-685.377,13578.879l2.921-1.506,3.186.946a5.255,5.255,0,0,0,3.572-.41c-.006,0,6.432-3.587,6.432-3.587a1.085,1.085,0,0,0,.383-1.593,1.324,1.324,0,0,0-1.552-.531l-4.7,1.513" transform="translate(-77.761 -166.511)" fill="none" stroke="#282c3f" stroke-linejoin="round" stroke-width="1.4"/>
  </g>
</svg>
