<svg xmlns="http://www.w3.org/2000/svg" width="251" height="158" viewBox="0 0 251 158">
  <g id="Group_183832" data-name="Group 183832" transform="translate(-931 -312)">
    <path id="Path_155593" data-name="Path 155593" d="M12.527,33.114,2.921,17.1l6.4-6.4,16.011,9.607,1.157,5.8L50.505,49.153s-10,8.823-10,8.823L26.99,44.485l-9.63-9.579ZM66.452,61.406c-.9,1.029-1.975,2.155-14.224,16.251l27.9,29.877c5.032,5.489,13.724,5.947,18.756.457a12.739,12.739,0,0,0-.457-18.756Zm34.727-10.924c7.319-7.319,9.607-18.3,6.862-27.9-.593-2.583-3.148-3.43-4.33-2.272L87.618,36.465,77.756,26.1,93.561,9.34c1.5-1.5-.548-3.56-2.9-4.145a26.659,26.659,0,0,0-27.9,6.862,28.141,28.141,0,0,0-5.489,31.107L11.518,83.877c-5.489,5.032-5.947,13.724-.457,18.756h0a12.739,12.739,0,0,0,18.756-.457L70.53,56.43A26.8,26.8,0,0,0,101.179,50.483Z" transform="translate(1000.58 323.985)" fill="none" stroke="#292c3e" stroke-width="2"/>
    <ellipse id="Ellipse_11541" data-name="Ellipse 11541" cx="125.5" cy="10.5" rx="125.5" ry="10.5" transform="translate(931 449)" fill="#f2f8fc"/>
    <g id="Group_24542" data-name="Group 24542" transform="translate(339.453 -277.298)">
      <g id="Group_6828" data-name="Group 6828">
        <g id="Path_28604" data-name="Path 28604">
          <path id="Path_32344" data-name="Path 32344" d="M781.194,598.1a1.074,1.074,0,0,1-1.073-1.074h0v-6.66a1.073,1.073,0,0,1,2.146,0v6.66A1.073,1.073,0,0,1,781.2,598.1Z" fill="#da001a"/>
        </g>
      </g>
      <g id="Group_6829" data-name="Group 6829">
        <g id="Path_28605" data-name="Path 28605">
          <path id="Path_32345" data-name="Path 32345" d="M781.194,611.106a1.073,1.073,0,0,1-1.073-1.073h0v-6.66a1.073,1.073,0,0,1,2.146,0v6.66a1.072,1.072,0,0,1-1.072,1.073Z" fill="#da001a"/>
        </g>
      </g>
      <g id="Group_6830" data-name="Group 6830">
        <g id="Path_28606" data-name="Path 28606">
          <path id="Path_32346" data-name="Path 32346" d="M791.024,601.276h-6.659a1.073,1.073,0,0,1,0-2.146h6.659a1.073,1.073,0,0,1,0,2.146Z" fill="#da001a"/>
        </g>
      </g>
      <g id="Group_6831" data-name="Group 6831">
        <g id="Path_28607" data-name="Path 28607">
          <path id="Path_32347" data-name="Path 32347" d="M778.022,601.276h-6.66a1.073,1.073,0,0,1,0-2.146h6.66a1.073,1.073,0,0,1,0,2.146Z" fill="#da001a"/>
        </g>
      </g>
    </g>
    <g id="Group_24545" data-name="Group 24545" transform="translate(399.605 -299.298)">
      <g id="Group_6828-4" data-name="Group 6828-4">
        <g id="Path_28604-4" data-name="Path 28604-4">
          <path id="Path_32356" data-name="Path 32356" d="M587.194,687.1a1.074,1.074,0,0,1-1.073-1.074h0v-6.66a1.073,1.073,0,0,1,2.146,0v6.66A1.073,1.073,0,0,1,587.2,687.1Z" fill="#1c2130"/>
        </g>
      </g>
      <g id="Group_6829-4" data-name="Group 6829-4">
        <g id="Path_28605-4" data-name="Path 28605-4">
          <path id="Path_32357" data-name="Path 32357" d="M587.194,700.106a1.073,1.073,0,0,1-1.073-1.073h0v-6.66a1.073,1.073,0,0,1,2.146,0v6.66a1.072,1.072,0,0,1-1.072,1.073Z" fill="#1c2130"/>
        </g>
      </g>
      <g id="Group_6830-4" data-name="Group 6830-4">
        <g id="Path_28606-4" data-name="Path 28606-4">
          <path id="Path_32358" data-name="Path 32358" d="M597.024,690.276h-6.659a1.073,1.073,0,0,1,0-2.146h6.659a1.073,1.073,0,0,1,0,2.146Z" fill="#1c2130"/>
        </g>
      </g>
      <g id="Group_6831-4" data-name="Group 6831-4">
        <g id="Path_28607-4" data-name="Path 28607-4">
          <path id="Path_32359" data-name="Path 32359" d="M584.022,690.276h-6.66a1.073,1.073,0,0,1,0-2.146h6.66a1.073,1.073,0,0,1,0,2.146Z" fill="#1c2130"/>
        </g>
      </g>
    </g>
  </g>
</svg>
