<svg xmlns="http://www.w3.org/2000/svg" width="30" height="30" viewBox="0 0 30 30">
  <g id="Group_183557" data-name="Group 183557" transform="translate(-214 -424)">
    <g id="Group_183548" data-name="Group 183548" transform="translate(221 430)">
      <path id="Path_155508" data-name="Path 155508" d="M14907.484,551.735l1.7,1.75,2.266-2.359s.809-.834,1.111.411-.2,6.547-6.295,5.19c.016-.056-5.992,6.738-5.992,6.738s-1.711,1.763-3,.58c.018-.036-1.994-1.277,0-3.315.043-.044,7.012-6.311,7.012-6.311s-1.908-6.291,4.9-6.225c.049-.016,1.7.18.459,1.4C14909.691,549.611,14907.484,551.735,14907.484,551.735Z" transform="translate(-14895.755 -548.193)" fill="none" stroke="#282c3f" stroke-width="1.5"/>
      <path id="Path_155507" data-name="Path 155507" d="M15182.79-600.367l2.737,3.171,6.977,8.163s1.775,1.837,3.235.184a2.1,2.1,0,0,0-.237-3.071l-11.287-9.818-.186-.931-2.51-1.506-1.023,1.011,1.522,2.508Z" transform="translate(-15180.496 605.343)" fill="#f4f4f4" stroke="#e50019" stroke-width="1.5"/>
    </g>
    <rect id="Rectangle_66143" data-name="Rectangle 66143" width="30" height="30" transform="translate(214 424)" fill="none"/>
  </g>
</svg>
