<svg xmlns="http://www.w3.org/2000/svg" width="86.785" height="87.865" viewBox="0 0 86.785 87.865">
  <g id="Group_27757" data-name="Group 27757" transform="translate(16171.237 -17899.002)">
    <g id="_483-Server" data-name="483-Server" transform="translate(-16170.237 17900.002)">
      <rect id="Rectangle_12859" data-name="Rectangle 12859" width="79.611" height="26.537" transform="translate(0.18 0)" fill="none" stroke="#454545" stroke-linejoin="round" stroke-width="2"/>
      <path id="Path_40981" data-name="Path 40981" d="M1,37.6V11H80.791V32.278" transform="translate(-1 15.415)" fill="none" stroke="#454545" stroke-linejoin="round" stroke-width="2"/>
      <path id="Path_40982" data-name="Path 40982" d="M46.215,47.6H1V21H40.9" transform="translate(-1 32.012)" fill="none" stroke="#454545" stroke-linejoin="round" stroke-width="2"/>
      <line id="Line_67" data-name="Line 67" x1="15.164" transform="translate(8.52 12.889)" fill="none" stroke="#454545" stroke-linejoin="round" stroke-width="2"/>
      <line id="Line_68" data-name="Line 68" x2="49.283" transform="translate(10.037 39.426)" fill="none" stroke="#454545" stroke-linejoin="round" stroke-width="2"/>
      <line id="Line_69" data-name="Line 69" x2="5.307" transform="translate(63.869 39.426)" fill="none" stroke="#454545" stroke-linejoin="round" stroke-width="2"/>
      <line id="Line_70" data-name="Line 70" x2="6.066" transform="translate(10.037 65.963)" fill="none" stroke="#454545" stroke-linejoin="round" stroke-width="2"/>
      <line id="Line_73" data-name="Line 73" x2="6.769" transform="translate(29.75 12.89)" fill="none" stroke="#454545" stroke-linejoin="round" stroke-width="2"/>
    </g>
    <g id="Ellipse_14424" data-name="Ellipse 14424" transform="translate(-16122.362 17948.957)" fill="none" stroke="#e50019" stroke-width="2">
      <circle cx="18.955" cy="18.955" r="18.955" stroke="none"/>
      <circle cx="18.955" cy="18.955" r="17.955" fill="none"/>
    </g>
    <path id="Path_40983" data-name="Path 40983" d="M4.434-12.752a1.037,1.037,0,0,0,1.082-1.137l.137-11.273A1.184,1.184,0,0,0,4.434-26.4a1.184,1.184,0,0,0-1.219,1.233l.137,11.273A1.037,1.037,0,0,0,4.434-12.752Zm0,6.507A1.535,1.535,0,0,0,6-7.807,1.527,1.527,0,0,0,4.434-9.368,1.535,1.535,0,0,0,2.873-7.807,1.544,1.544,0,0,0,4.434-6.245Z" transform="translate(-16107.821 17984.477)" fill="#e50019"/>
  </g>
</svg>
