<svg xmlns="http://www.w3.org/2000/svg" width="19.981" height="22.068" viewBox="0 0 19.981 22.068">
  <g id="fi_share-2" transform="translate(-2.4 -1.4)">
    <path id="Path_32457" data-name="Path 32457" d="M18.13,22.26A3.13,3.13,0,1,0,15,19.13,3.13,3.13,0,0,0,18.13,22.26Z" transform="translate(0.521 0.608)" fill="none" stroke="#696969" stroke-linecap="round" stroke-linejoin="round" stroke-width="1.2"/>
    <path id="Path_32458" data-name="Path 32458" d="M6.13,15.26A3.13,3.13,0,1,0,3,12.13,3.13,3.13,0,0,0,6.13,15.26Z" transform="translate(0 0.304)" fill="none" stroke="#696969" stroke-linecap="round" stroke-linejoin="round" stroke-width="1.2"/>
    <path id="Path_32459" data-name="Path 32459" d="M8.59,13.51l7.126,4.153" transform="translate(0.243 0.5)" fill="none" stroke="#696969" stroke-linecap="round" stroke-linejoin="round" stroke-width="1.2"/>
    <path id="Path_32460" data-name="Path 32460" d="M18.13,8.26A3.13,3.13,0,1,0,15,5.13,3.13,3.13,0,0,0,18.13,8.26Z" transform="translate(0.521)" fill="none" stroke="#696969" stroke-linecap="round" stroke-linejoin="round" stroke-width="1.2"/>
    <path id="Path_32461" data-name="Path 32461" d="M15.706,6.51,8.59,10.663" transform="translate(0.243 0.196)" fill="none" stroke="#696969" stroke-linecap="round" stroke-linejoin="round" stroke-width="1.2"/>
  </g>
</svg>
