<?xml version="1.0" standalone="no"?>
<!DOCTYPE svg PUBLIC "-//W3C//DTD SVG 20010904//EN"
 "http://www.w3.org/TR/2001/REC-SVG-20010904/DTD/svg10.dtd">
<svg version="1.0" xmlns="http://www.w3.org/2000/svg"
 width="82.000000pt" height="72.000000pt" viewBox="0 0 82.000000 72.000000"
 preserveAspectRatio="xMidYMid meet">

<g transform="translate(0.000000,72.000000) scale(0.100000,-0.100000)"
fill="#000000" stroke="none">
<path d="M36 606 c-20 -63 -36 -126 -36 -141 0 -30 21 -75 44 -94 13 -11 16
-42 16 -192 l0 -179 150 0 150 0 0 85 0 85 45 0 45 0 0 -85 0 -85 150 0 150 0
0 179 c0 150 3 181 16 192 23 19 44 64 44 94 0 15 -16 78 -36 141 l-36 114
-333 0 -333 0 -36 -114z m680 -28 c33 -105 33 -136 -1 -165 -48 -42 -116 -26
-141 33 -12 28 -20 34 -44 34 -24 0 -32 -6 -44 -34 -32 -77 -130 -77 -162 0
-12 28 -20 34 -44 34 -24 0 -32 -6 -44 -34 -25 -59 -93 -75 -141 -33 -33 29
-34 55 -1 160 l27 87 284 0 284 0 27 -82z m-411 -218 c44 -48 140 -50 195 -3
l31 26 22 -21 c27 -26 69 -42 108 -42 l29 0 0 -125 0 -125 -85 0 -84 0 -3 83
-3 82 -110 0 -110 0 -3 -82 -3 -83 -84 0 -85 0 0 125 0 125 30 0 c37 0 90 21
109 43 17 22 24 21 46 -3z"/>
</g>
</svg>
