<svg xmlns="http://www.w3.org/2000/svg" xmlns:xlink="http://www.w3.org/1999/xlink" width="30" height="30" viewBox="0 0 30 30">
  <defs>
    <clipPath id="clip-path">
      <rect id="Rectangle_15009" data-name="Rectangle 15009" width="30" height="30" transform="translate(46 302)" fill="#fff" stroke="#707070" stroke-width="1"/>
    </clipPath>
  </defs>
  <g id="Mask_Group_4588" data-name="Mask Group 4588" transform="translate(-46 -302)" clip-path="url(#clip-path)">
    <g id="Group_28131" data-name="Group 28131" transform="translate(0.059 0.101)">
      <g id="fi_smartphone" transform="translate(54 304.886)">
        <path id="Path_41397" data-name="Path 41397" d="M16.9,2H6.983A2.216,2.216,0,0,0,5,4.391V23.52a2.216,2.216,0,0,0,1.983,2.391H16.9a2.216,2.216,0,0,0,1.983-2.391V4.391A2.216,2.216,0,0,0,16.9,2Z" transform="translate(-5 -2)" fill="none" stroke="#282c3f" stroke-linecap="round" stroke-linejoin="round" stroke-width="1.3"/>
        <path id="Path_41398" data-name="Path 41398" d="M12,18h.01" transform="translate(-5.059 1.945)" fill="none" stroke="#282c3f" stroke-linecap="round" stroke-linejoin="round" stroke-width="2"/>
      </g>
      <g id="Group_28130" data-name="Group 28130" transform="translate(58.193 311.244)">
        <path id="Path_41399" data-name="Path 41399" d="M5.433-10.764H3.687a2.262,2.262,0,0,1,.815,1.6H5.625l-.192.611H4.507A2.191,2.191,0,0,1,3.73-6.96a2.861,2.861,0,0,1-1.877.573L4.717-2.977V-2.9H3.89L.876-6.48.87-6.992h.949a2.111,2.111,0,0,0,1.339-.422,1.705,1.705,0,0,0,.629-1.138H.4l.192-.611H3.78a1.732,1.732,0,0,0-.617-1.144,2.3,2.3,0,0,0-1.426-.457H.486l.2-.611H5.625Z" transform="translate(-0.263 11.474)" fill="#282c3f"/>
        <path id="Path_41399_-_Outline" data-name="Path 41399 - Outline" d="M.61-11.475H5.759l-.254.809H3.942a2.387,2.387,0,0,1,.647,1.4h1.17L5.5-8.454H4.6a2.27,2.27,0,0,1-.8,1.569,2.856,2.856,0,0,1-1.731.591l2.754,3.28V-2.8H3.843L.776-6.444.768-7.092H1.817a2.024,2.024,0,0,0,1.277-.4,1.59,1.59,0,0,0,.572-.961H.262l.254-.809H3.662a1.62,1.62,0,0,0-.563-.968,2.211,2.211,0,0,0-1.366-.434H.348Zm4.878.2H.755l-.134.413H1.736a2.4,2.4,0,0,1,1.489.48,1.836,1.836,0,0,1,.652,1.207l.016.113H.662l-.13.413H3.9l-.016.113a1.809,1.809,0,0,1-.665,1.2,2.217,2.217,0,0,1-1.4.443H.969l0,.376L3.935-3h.631L1.64-6.487h.213a2.779,2.779,0,0,0,1.814-.551,2.1,2.1,0,0,0,.741-1.523l.007-.091h.944l.13-.413H4.411L4.4-9.154a2.176,2.176,0,0,0-.779-1.534l-.217-.176H5.359Z" transform="translate(-0.262 11.475)" fill="#282c3f"/>
      </g>
    </g>
  </g>
</svg>
