<svg xmlns="http://www.w3.org/2000/svg" width="50" height="50" viewBox="0 0 50 50">
  <g id="Group_183238" data-name="Group 183238" transform="translate(-677 -816)">
    <circle id="Ellipse_14850" data-name="Ellipse 14850" cx="25" cy="25" r="25" transform="translate(677 816)" fill="#25d366"/>
    <path id="Digital_Glyph_Black" d="M22.105,3.778A12.886,12.886,0,0,0,1.828,19.323L0,26l6.83-1.792a12.867,12.867,0,0,0,6.157,1.568h.006a12.889,12.889,0,0,0,9.113-22Zm-3.24,11.8c-.322-.161-1.9-.94-2.2-1.047s-.51-.161-.724.161-.831,1.048-1.019,1.262-.376.242-.7.08a8.8,8.8,0,0,1-2.589-1.6,9.7,9.7,0,0,1-1.791-2.23c-.188-.322-.02-.5.141-.657.145-.145.322-.376.483-.564a2.193,2.193,0,0,0,.322-.537.593.593,0,0,0-.027-.564c-.08-.161-.724-1.746-.993-2.39-.261-.628-.527-.542-.724-.553s-.4-.011-.617-.011a1.182,1.182,0,0,0-.859.4,3.611,3.611,0,0,0-1.127,2.685,6.263,6.263,0,0,0,1.315,3.33,14.357,14.357,0,0,0,5.5,4.861,18.465,18.465,0,0,0,1.835.678,4.411,4.411,0,0,0,2.027.128,3.316,3.316,0,0,0,2.173-1.531,2.7,2.7,0,0,0,.188-1.531c-.08-.134-.3-.215-.617-.376Z" transform="translate(689 828)" fill="#fff" fill-rule="evenodd"/>
  </g>
</svg>
